# xmcd
#
# Track frame offsets: 
#        150
#        22050
#        35545
#        45857
#        63787
#        79662
#        94227
#        110910
#        122785
#        137192
#        150270
#        172050
#        183122
#        201160
#
# Disc length: 2954 seconds
#
# Revision: 1
# Processed by: cddbd v1.5.2PL0 Copyright (c) Steve Scherf et al.
# Submitted via: ExactAudioCopy v0.95b3
#
DISCID=b70b880e
DTITLE=Gaye Adegbalola - Bitter Sweet Blues
DYEAR=1999
DGENRE=Blues
TTITLE0=She Just Wants to Dance
TTITLE1=Need A Little Sugar In My Bowl
TTITLE2=You Don't Have to Take It (Like I Did)
TTITLE3=Big Ovaries, Baby
TTITLE4=Nothing's Changed
TTITLE5=You Really Got A Hold On Me
TTITLE6=The Dog Was Here First
TTITLE7=Front Door Blues
TTITLE8=Only One Truth
TTITLE9=Prove It On Me Blues
TTITLE10=Jail House Blues
TTITLE11=Images
TTITLE12=Nightmare
TTITLE13=Let Go, Let God
EXTD=
EXTT0=
EXTT1=
EXTT2=
EXTT3=
EXTT4=
EXTT5=
EXTT6=
EXTT7=
EXTT8=
EXTT9=
EXTT10=
EXTT11=
EXTT12=
EXTT13=
PLAYORDER=
